<svg xmlns="http://www.w3.org/2000/svg" viewBox="0 0 345.8 307.16"><defs><style>.cls-1{fill:#fff;}</style></defs><g id="Layer_2" data-name="Layer 2"><g id="Layer_1-2" data-name="Layer 1"><path class="cls-1" d="M192.1,116.17l77.27-81.82L256,21c-2.41-2.4-5.84-4.65-4.83-8.48,1.18-4.51,5.55-4.19,9.29-4.63,14.53-1.71,29-3.61,43.57-5.3,8.31-1,16.64-1.7,25.23-2.57.83,2.68,1.9,4.41,1.81,6.08-1,18.7-2.17,37.38-3.26,56.07-.23,4.06,0,8.16-.61,12.17-.33,2.25-1.26,5-2.88,6.37-2.63,2.3-5.38,0-7.56-1.6a46.6,46.6,0,0,1-6.83-6.42c-2.5-2.8-4.68-5.89-6.86-8.67-6.11,2.7-8.75,6.67-11.92,9.94S285,81,281.77,84.41c-18.12,19-36.33,38-54.44,57-5.6,5.88-10.87,12.09-16.55,17.89-11.55,11.8-22.9,12.15-35.24.74-9.87-9.14-19.23-18.83-28.95-28.14-5.18-5-10.63-9.63-16.32-14.77-9.82,7.53-19.44,14.88-29,22.27q-30.76,23.73-61.51,47.5c-7.41,5.73-14.74,11.57-22.16,17.29-3.2,2.48-6.47,4.89-9.83,7.15-2,1.36-4.1,1.11-5.9-.77-2-2.08-2.5-4.3-.88-6.76A32.67,32.67,0,0,1,3.4,201q15.85-18.51,31.69-37c13.79-16.14,27.51-32.36,41.36-48.45C86.24,104.13,96.23,93,106.08,81.64c2.25-2.58,4.19-5.45,6.5-8,9.36-10.24,22.56-11.54,33.09-1.69,12.34,11.54,24.51,23.24,36.75,34.89C185.34,109.64,188.24,112.46,192.1,116.17Z"/><path class="cls-1" d="M345.75,200.16V293c0,2.19.15,4.39-.05,6.56-.42,4.6-2.49,7.25-6.89,7.36-11.55.3-23.13.17-34.69.1-3.66,0-5.71-2.35-6.34-5.76a40.09,40.09,0,0,1-.68-7.42q0-94.71,0-189.44a33.19,33.19,0,0,1,.08-4.68c.63-4.46,2.75-6.76,7.41-6.86,11.25-.22,22.51-.24,33.76,0,5,.12,7,2.63,7.38,7.85.16,2.18,0,4.37,0,6.56Z"/><path class="cls-1" d="M107.14,232.36v-60c0-2.19,0-4.39.11-6.56.24-3.29,2.15-5.32,5.39-5.35,12.19-.12,24.39-.19,36.58,0,3.94.07,6.13,2.83,6.54,6.71a62.35,62.35,0,0,1,.1,6.56q0,60,0,120.06c0,1.87.13,3.76,0,5.62-.48,5.06-2.56,7.46-7.67,7.57q-16.87.38-33.76,0c-4.65-.11-6.67-2.47-7.18-7.07a62.33,62.33,0,0,1-.07-6.56Z"/><path class="cls-1" d="M282,233c0,21.27,0,42.54,0,63.81,0,9-1.19,10.15-10.32,10.28q-14.07.18-28.15,0c-7.79-.1-9-1.12-9-8.5q-.1-65.68,0-131.36c0-7.61,1.11-8.62,8.75-8.71,10-.11,20-.13,30,0,7.55.1,8.64,1.17,8.67,8.8C282.1,189.18,282,211.08,282,233Z"/><path class="cls-1" d="M218.39,250.71c0,15.64.06,31.29,0,46.93-.05,8.29-1,9.32-9.05,9.42q-15,.19-30,0c-6.95-.1-8.28-1.4-8.43-8.16-.17-7.19,0-14.38,0-21.58q0-36.6,0-73.2c0-10.74.85-11.55,11.88-11.62,8.76-.06,17.52-.17,26.28,0,7.84.17,9.35,1.72,9.39,9.4C218.45,218.18,218.39,234.45,218.39,250.71Z"/><path class="cls-1" d="M45.52,214.73H62c7.19,0,14.38-.11,21.57,0,7.51.15,8.47,1.11,8.55,8.89.13,11.87.05,23.75.05,35.62,0,12.19,0,24.38,0,36.57,0,9.5-1.58,11.13-10.66,11.22-9.69.09-19.38.13-29.06,0-5.93-.1-7.74-1.86-8.69-7.58a22.26,22.26,0,0,1-.16-3.74c.19-23.73.36-47.45.65-71.17C44.22,221.57,45,218.61,45.52,214.73Z"/></g></g></svg>