<svg id="Layer_1" data-name="Layer 1" xmlns="http://www.w3.org/2000/svg" xmlns:xlink="http://www.w3.org/1999/xlink" viewBox="0 0 15 11.2"><defs><style>.cls-1{fill:none;}.cls-2{clip-path:url(#clip-path);}.cls-3{fill:#2b3a67;}</style><clipPath id="clip-path"><rect class="cls-1" width="15" height="11.3"/></clipPath></defs><title>ic-mail</title><g class="cls-2"><path class="cls-3" d="M13.6,0H1.4A1.37,1.37,0,0,0,0,1.4V9.8a1.37,1.37,0,0,0,1.4,1.4H13.6A1.37,1.37,0,0,0,15,9.8V1.4A1.37,1.37,0,0,0,13.6,0m0,.9h.2L7.5,6.4,1.2,1H13.6Zm0,9.4H1.4a.47.47,0,0,1-.5-.5V2L7.2,7.4a.37.37,0,0,0,.3.1.37.37,0,0,0,.3-.1L14.1,2V9.9a.46.46,0,0,1-.5.4"/></g></svg>