<?xml version="1.0" encoding="utf-8"?>
<!-- Generator: Adobe Illustrator 23.0.5, SVG Export Plug-In . SVG Version: 6.00 Build 0)  -->
<svg version="1.1" id="Layer_1" xmlns="http://www.w3.org/2000/svg" xmlns:xlink="http://www.w3.org/1999/xlink" x="0px" y="0px"
	 viewBox="0 0 372.1 391.1" style="enable-background:new 0 0 372.1 391.1;" xml:space="preserve">
<style type="text/css">
	.st0{fill:#2B3A67;}
</style>
<g>
	<path class="st0" d="M237.2,391.1c-23.3-0.1-44.4-7.7-64.5-19c-48-26.9-85.3-64.7-115.6-110.2c-24.2-36.4-42.2-75.5-51.5-118.4
		C1.3,123.3-1.7,102.9,1,82.2C5.6,47.5,25.5,23.7,55.6,7.5c6.9-3.7,14.2-6.6,22.2-7.3c15.8-1.5,26.9,4.7,33.6,19.1
		c8,17.1,13.3,35.2,17.6,53.6c1,4.4,2,8.7,2.5,13.2c1.3,10.8-2.2,19.5-11.4,25.7c-4.5,3-9.3,5.5-14.4,7.6
		c-8.1,3.3-16.3,6.6-24.4,9.9c-7.4,3-8.9,6.3-6.3,13.8c8.8,25.3,20.7,49.1,34.8,71.9c18.8,30.3,41.2,57.8,67.6,81.9
		c6.6,6,10.8,5.7,16.5-1.1c7.3-8.8,15-17.1,24.6-23.3c7.6-4.9,15.7-7.9,24.9-6.4c3.9,0.6,7.3,2.3,10.6,4.3
		c18,11.1,34.9,23.7,49.8,38.9c3.6,3.7,7,7.5,9.8,11.8c7.9,12.1,7.8,23.1-0.7,34.7c-9.9,13.6-23.5,22.4-38.9,28.5
		C262,388.9,249.9,391.2,237.2,391.1z"/>
	<path class="st0" d="M372.1,182.2c0.2,10.7-1.1,22.3-3.5,33.8c-2.2,10.6-11.7,16.8-22.2,14.6c-9.5-2-15.7-11.3-13.6-21
		c15.6-74.6-31.6-144.7-102-164.9c-4.1-1.2-8.4-2.1-12.6-3.1c-9.4-2.2-15.5-10.5-14.2-19.4c1.4-9.7,9.7-16.4,19.9-15.3
		c10.2,1.2,20,4.2,29.6,7.9C314,38.6,353,81.4,368.3,145C371.2,156.9,372.2,169,372.1,182.2z"/>
	<path class="st0" d="M311.6,188.1c0.1,6.2-0.7,14-2.2,21.7c-2.1,11.4-11.3,18.1-22.1,16c-10.3-2-15.9-11.2-13.7-22.5
		c9.3-47.8-22.6-95.4-71.3-106c-7.9-1.7-14.2-5.2-16.5-13.4c-3.6-12.7,7.7-24.3,21.1-22C266.3,72.3,311.7,126.2,311.6,188.1z"/>
	<path class="st0" d="M250.7,191.7c-0.3,4.8-0.6,9.7-1.6,14.6c-2.2,10.1-11.5,16.5-21.4,14.5c-10-1.9-16-10.6-14.4-20.8
		c3.5-23.3-9.3-42.6-31.7-47.9c-11.1-2.6-17.2-11.3-15.1-21.3c2.1-9.6,11.5-15.2,22.2-13.4c28.8,5,54.4,30,60.2,58.9
		C250,181.4,250.4,186.4,250.7,191.7z"/>
</g>
</svg>
