<?xml version="1.0" encoding="utf-8"?>
<!-- Generator: Adobe Illustrator 16.0.0, SVG Export Plug-In . SVG Version: 6.00 Build 0)  -->
<!DOCTYPE svg PUBLIC "-//W3C//DTD SVG 1.1//EN" "http://www.w3.org/Graphics/SVG/1.1/DTD/svg11.dtd">
<svg version="1.1" id="Layer_1" xmlns="http://www.w3.org/2000/svg" xmlns:xlink="http://www.w3.org/1999/xlink" x="0px" y="0px"
	 width="3094.98px" height="1714.054px" viewBox="0 0 3094.98 1714.054" enable-background="new 0 0 3094.98 1714.054"
	 xml:space="preserve">
<g>
	<defs>
		<rect id="SVGID_1_" y="0.004" width="3094.98" height="1714.05"/>
	</defs>
	<clipPath id="SVGID_2_">
		<use xlink:href="#SVGID_1_"  overflow="visible"/>
	</clipPath>
	<g clip-path="url(#SVGID_2_)">
		<defs>
			<rect id="SVGID_3_" width="3094.98" height="1714.054"/>
		</defs>
		<clipPath id="SVGID_4_">
			<use xlink:href="#SVGID_3_"  overflow="visible"/>
		</clipPath>
		<path clip-path="url(#SVGID_4_)" fill="#EAFCFC" d="M803.396,3.107c437.282-25.287,895.755,106.435,828.362,297.38
			c-67.393,190.945,360.295-67.823,530.971,1.021c121.512,49.013,72.938,198.217,131.723,258.338
			c134.785,137.848,272.632-35.739,444.178,68.414c171.545,104.152,100.213,1078.144,30.365,1078.004l-2645.399-4.83l-31.654,1.021
			c0,0-194.009-279.781-18.38-443.157c175.629-163.375,55.041-238.08,33.696-301.224c-24.506-72.498-81.688-199.114,167.46-292.034
			c249.149-92.921,184.819-295.098,178.693-336.963C447.283,287.213,366.113,28.396,803.396,3.107"/>
		<g opacity="0.6" clip-path="url(#SVGID_4_)">
			<g>
				<defs>
					<rect id="SVGID_5_" x="2151.29" y="150.574" width="200.399" height="1551.125"/>
				</defs>
				<clipPath id="SVGID_6_">
					<use xlink:href="#SVGID_5_"  overflow="visible"/>
				</clipPath>
				<rect x="2151.295" y="150.579" clip-path="url(#SVGID_6_)" fill="#9BC1F9" width="200.396" height="1551.12"/>
			</g>
		</g>
		<g opacity="0.6" clip-path="url(#SVGID_4_)">
			<g>
				<defs>
					<rect id="SVGID_7_" x="1871.43" y="623.704" width="200.4" height="1077.995"/>
				</defs>
				<clipPath id="SVGID_8_">
					<use xlink:href="#SVGID_7_"  overflow="visible"/>
				</clipPath>
				<rect x="1871.432" y="623.707" clip-path="url(#SVGID_8_)" fill="#9BC1F9" width="200.396" height="1077.991"/>
			</g>
		</g>
		<g opacity="0.6" clip-path="url(#SVGID_4_)">
			<g>
				<defs>
					<rect id="SVGID_9_" x="2435.189" y="486.644" width="200.391" height="1215.055"/>
				</defs>
				<clipPath id="SVGID_10_">
					<use xlink:href="#SVGID_9_"  overflow="visible"/>
				</clipPath>
				<rect x="2435.186" y="486.643" clip-path="url(#SVGID_10_)" fill="#9BC1F9" width="200.396" height="1215.056"/>
			</g>
		</g>
		<g opacity="0.6" clip-path="url(#SVGID_4_)">
			<g>
				<defs>
					<rect id="SVGID_11_" x="1591.57" y="438.854" width="200.39" height="1262.845"/>
				</defs>
				<clipPath id="SVGID_12_">
					<use xlink:href="#SVGID_11_"  overflow="visible"/>
				</clipPath>
				<rect x="1591.569" y="438.859" clip-path="url(#SVGID_12_)" fill="#9BC1F9" width="200.396" height="1262.839"/>
			</g>
		</g>
		<g opacity="0.6" clip-path="url(#SVGID_4_)">
			<g>
				<defs>
					<rect id="SVGID_13_" x="1311.71" y="813.285" width="200.39" height="888.414"/>
				</defs>
				<clipPath id="SVGID_14_">
					<use xlink:href="#SVGID_13_"  overflow="visible"/>
				</clipPath>
				<rect x="1311.705" y="813.285" clip-path="url(#SVGID_14_)" fill="#9BC1F9" width="200.396" height="888.414"/>
			</g>
		</g>
		<g opacity="0.3" clip-path="url(#SVGID_4_)">
			<g>
				<defs>
					<rect id="SVGID_15_" x="2151.29" y="508.063" width="200.399" height="1193.635"/>
				</defs>
				<clipPath id="SVGID_16_">
					<use xlink:href="#SVGID_15_"  overflow="visible"/>
				</clipPath>
				<rect x="2151.295" y="508.069" clip-path="url(#SVGID_16_)" fill="#9BC1F9" width="200.396" height="1193.629"/>
			</g>
		</g>
		<g opacity="0.3" clip-path="url(#SVGID_4_)">
			<g>
				<defs>
					<rect id="SVGID_17_" x="1871.43" y="872.153" width="200.4" height="829.545"/>
				</defs>
				<clipPath id="SVGID_18_">
					<use xlink:href="#SVGID_17_"  overflow="visible"/>
				</clipPath>
				<rect x="1871.432" y="872.153" clip-path="url(#SVGID_18_)" fill="#9BC1F9" width="200.396" height="829.545"/>
			</g>
		</g>
		<g opacity="0.3" clip-path="url(#SVGID_4_)">
			<g>
				<defs>
					<rect id="SVGID_19_" x="2435.189" y="766.679" width="200.391" height="935.02"/>
				</defs>
				<clipPath id="SVGID_20_">
					<use xlink:href="#SVGID_19_"  overflow="visible"/>
				</clipPath>
				<rect x="2435.186" y="766.679" clip-path="url(#SVGID_20_)" fill="#9BC1F9" width="200.396" height="935.02"/>
			</g>
		</g>
		<g opacity="0.3" clip-path="url(#SVGID_4_)">
			<g>
				<defs>
					<rect id="SVGID_21_" x="1591.57" y="729.908" width="200.39" height="971.791"/>
				</defs>
				<clipPath id="SVGID_22_">
					<use xlink:href="#SVGID_21_"  overflow="visible"/>
				</clipPath>
				<rect x="1591.569" y="729.908" clip-path="url(#SVGID_22_)" fill="#9BC1F9" width="200.396" height="971.791"/>
			</g>
		</g>
		<g opacity="0.3" clip-path="url(#SVGID_4_)">
			<g>
				<defs>
					<rect id="SVGID_23_" x="1311.71" y="1018.038" width="200.39" height="683.66"/>
				</defs>
				<clipPath id="SVGID_24_">
					<use xlink:href="#SVGID_23_"  overflow="visible"/>
				</clipPath>
				<rect x="1311.705" y="1018.039" clip-path="url(#SVGID_24_)" fill="#9BC1F9" width="200.396" height="683.659"/>
			</g>
		</g>
		<polygon clip-path="url(#SVGID_4_)" fill="#5183BF" points="2732.985,162.447 2573.303,283.214 2634.214,287.098 
			2253.033,957.975 2041.977,641.548 1743.412,1337.962 1551.37,1065.194 1312.012,1403.543 1327.074,1464.1 1551.269,1148.72 
			1754.268,1437.049 2051.736,743.192 2256.516,1050.205 2678.528,307.471 2717.707,349.607 		"/>
		<path clip-path="url(#SVGID_4_)" fill="#3C8F7C" d="M1129.444,1253.188c-229.15-182.476-421.686-418.495-567.469-695.624
			c-105.058,84.395-210.117,168.789-315.176,253.183c168.557,320.424,391.172,593.315,656.121,804.297
			C978.428,1494.425,1053.936,1373.807,1129.444,1253.188"/>
		<path clip-path="url(#SVGID_4_)" fill="#96D9C9" d="M512.625,623.735c-65.26,53.261-130.52,106.522-195.78,159.784
			c15.541,28.974,9.902,68.061-13.251,87.889c148.176,262.001,333.876,489.641,550.12,674.357
			c17.682-26.534,51.005-31.685,74.952-12.254c47.613-74.894,95.226-149.787,142.839-224.681
			c-22.035-17.885-25.185-54.435-7.514-80.948c-189.895-162.21-352.969-362.111-483.089-592.189
			C557.766,655.509,526.929,650.396,512.625,623.735"/>
		<path clip-path="url(#SVGID_4_)" fill="#50BFA5" d="M776.36,1222.669c48.926-63.14,48.458-156.292,2.306-212.015
			c-46.277-55.58-125.342-58.198-180.039-2.008c-54.609,56.073-59.828,155.747-7.804,218.323
			C642.788,1289.617,727.535,1285.708,776.36,1222.669"/>
		<path clip-path="url(#SVGID_4_)" fill="#50BFA5" d="M956.892,1385.147c-52.22-44.714-102.538-92.097-150.843-142.011
			c-8.278,10.766-16.555,21.53-24.832,32.294c48.981,50.613,100.004,98.659,152.954,143.999
			C941.746,1408.003,949.318,1396.574,956.892,1385.147"/>
		<path clip-path="url(#SVGID_4_)" fill="#3C8F7C" d="M1082.721,1179.615c-287.823-36.502-570.099-132.802-831.957-283.827
			c-49.781,116.635-99.561,233.271-149.343,349.905c302.767,174.62,629.141,285.965,961.929,328.169
			C1069.807,1442.447,1076.264,1311.031,1082.721,1179.615"/>
		<path clip-path="url(#SVGID_4_)" fill="#96D9C9" d="M240.352,971.629c-30.514,73.116-61.026,146.231-91.54,219.348
			c27.637,15.648,41.864,49.334,31.494,76.014c256.535,137.889,528.788,230.77,806.522,275.15
			c2.349-29.416,28.711-49.255,58.965-45.153c4.641-81.942,9.283-163.884,13.924-245.826c-27.842-3.778-48.444-31.296-46.095-60.69
			c-243.894-38.973-482.973-120.536-708.249-241.623C295.011,975.508,265.786,986.027,240.352,971.629"/>
		<path clip-path="url(#SVGID_4_)" fill="#50BFA5" d="M761.796,1322.29c11.527-73.234-34.43-146.941-101.676-169.348
			c-67.284-22.235-137.087,13.06-157.013,83.507c-19.907,70.313,24.31,151.883,99.997,176.952
			C678.773,1438.557,750.308,1395.396,761.796,1322.29"/>
		<path clip-path="url(#SVGID_4_)" fill="#0E2E35" d="M950.554,598.765c-6.979-2.342-13.853-4.987-20.488-8.177
			c-7.501-3.605-17.222-7.826-23.363-8.771c-12.925-1.989-35.13-0.663-47.393,12.594c-15.277,16.516-42.423,2.983-36.954,89.485
			c6.19,97.911,60.816,87.164,62.142,85.508c1.326-1.658,48.72-62.64,48.72-62.64s16.571,36.126,16.571,34.8
			C949.789,740.284,1034.402,626.907,950.554,598.765"/>
		<path clip-path="url(#SVGID_4_)" fill="#3C8F7C" d="M1008.131,1244.24c-226.453,89.472-476.309,130.371-736.406,120.545
			c17.262,110.675,34.524,221.351,51.786,332.025c300.731,11.362,589.621-35.927,851.451-139.377
			C1119.352,1453.036,1063.741,1348.638,1008.131,1244.24"/>
		<path clip-path="url(#SVGID_4_)" fill="#96D9C9" d="M298.947,1427.769c11.326,69.097,22.653,138.192,33.979,207.288
			c27.318,0.812,53.143,21.076,57.833,45.976c250.189,1.832,491.175-37.615,713.893-116.859
			c-11.79-23.737-1.688-49.884,22.236-59.083c-34.227-65.347-68.453-130.694-102.68-196.042
			c-22.019,8.464-49.659-4.416-61.438-28.137c-195.581,69.588-407.202,104.229-626.906,102.62
			C340.551,1408.415,324.084,1428.513,298.947,1427.769"/>
		<path clip-path="url(#SVGID_4_)" fill="#50BFA5" d="M839.796,1485.99c-25.213-61.421-92.524-99.694-151.802-89.536
			c-59.227,10.306-93.884,66.188-76.069,128.887c17.767,62.586,87.42,107.661,154.069,96.112
			C832.67,1609.979,864.979,1547.297,839.796,1485.99"/>
		<path clip-path="url(#SVGID_4_)" fill="#3C8F7C" d="M709.353,1414.059c2.371,7.259,4.739,14.518,7.106,21.777
			c25.522,0.577,44.303,14.366,50.847,33.337c6.57,19.131,0.362,32.751-22.629,45.729c-16.304,9.652-22.643,15.152-20.426,22.227
			c1.863,5.979,8.395,11.362,22.769,9.231c7.798-1.164,13.817-3.346,18.501-5.647c6.244-3.068,14.753-0.277,18.827,6.169
			c3.935,6.234,2.188,13.611-4.024,16.457c-5.077,2.326-11.387,4.427-19.382,6.011c2.025,6.266,4.049,12.53,6.072,18.796
			c-7.343,1.119-14.698,2.198-22.065,3.238c-2.12-6.772-4.242-13.546-6.365-20.318c-25.372-1.124-43.648-14.314-49.217-33.155
			c-6.161-20.803,6.648-33.392,27.319-44.379c14.294-7.641,19.443-13.874,16.79-21.973c-2.808-8.539-12.623-11.932-24.753-10.185
			c-8.333,1.199-15.709,3.904-21.913,7.188c-6.096,3.227-14.68,0.118-18.548-6.634c-0.141-0.246-0.283-0.492-0.424-0.739
			c-3.512-6.128-1.912-13.054,3.61-15.861c6.621-3.366,14.981-6.276,23.896-7.964c-2.141-6.77-4.284-13.54-6.429-20.309
			C695.739,1416.092,702.552,1415.094,709.353,1414.059"/>
		<path clip-path="url(#SVGID_4_)" fill="#50BFA5" d="M1031.689,1423.26c-53.86,19.092-108.856,35.707-164.841,49.823
			c4.326,10.426,8.651,20.852,12.976,31.277c56.769-14.313,112.534-31.162,167.149-50.521
			C1041.878,1443.646,1036.784,1433.453,1031.689,1423.26"/>
		<path clip-path="url(#SVGID_4_)" fill="#E59F39" d="M634.508,1609.244v81.076c0,13.107,146.221,23.733,326.593,23.733
			c180.373,0,326.594-10.626,326.594-23.733v-81.076H634.508z"/>
		<path clip-path="url(#SVGID_4_)" fill="#EAB054" d="M870.858,1713.136v-103.892h-236.35v81.076
			C634.508,1701.153,734.378,1710.29,870.858,1713.136"/>
		<path clip-path="url(#SVGID_4_)" fill="#EAB054" d="M881.858,1713.35c25.371,0.46,51.915,0.704,79.243,0.704
			c40.722,0,79.702-0.542,115.653-1.531v-103.278H881.858V1713.35z"/>
		<path clip-path="url(#SVGID_4_)" fill="#EAB054" d="M1089.84,1712.139c116.36-3.631,197.855-12.033,197.855-21.818v-81.076
			H1089.84V1712.139z"/>
		<path clip-path="url(#SVGID_4_)" fill="#E59F39" d="M1287.695,1608.383c0,13.107-146.221,23.732-326.594,23.732
			c-180.372,0-326.593-10.625-326.593-23.732c0-13.106,146.221-23.732,326.593-23.732
			C1141.474,1584.65,1287.695,1595.276,1287.695,1608.383"/>
		<path clip-path="url(#SVGID_4_)" fill="#F7CC7F" d="M1230.044,1608.383c0,9.088-120.41,16.455-268.943,16.455
			c-148.533,0-268.942-7.367-268.942-16.455c0-9.087,120.409-16.454,268.942-16.454
			C1109.634,1591.929,1230.044,1599.296,1230.044,1608.383"/>
		<path clip-path="url(#SVGID_4_)" fill="#E59F39" d="M578.631,1523.449v81.077c0,13.106,146.221,23.732,326.593,23.732
			c180.373,0,326.594-10.626,326.594-23.732v-81.077H578.631z"/>
		<path clip-path="url(#SVGID_4_)" fill="#EAB054" d="M814.981,1627.341v-103.892h-236.35v81.077
			C578.631,1615.358,678.501,1624.496,814.981,1627.341"/>
		<path clip-path="url(#SVGID_4_)" fill="#EAB054" d="M825.981,1627.556c25.371,0.459,51.915,0.703,79.243,0.703
			c40.722,0,79.702-0.542,115.653-1.531V1523.45H825.981V1627.556z"/>
		<path clip-path="url(#SVGID_4_)" fill="#EAB054" d="M1033.963,1626.344c116.36-3.631,197.855-12.032,197.855-21.817v-81.078
			h-197.855V1626.344z"/>
		<path clip-path="url(#SVGID_4_)" fill="#E59F39" d="M1231.818,1522.589c0,13.106-146.221,23.732-326.594,23.732
			c-180.372,0-326.593-10.626-326.593-23.732c0-13.107,146.221-23.732,326.593-23.732
			C1085.597,1498.856,1231.818,1509.481,1231.818,1522.589"/>
		<path clip-path="url(#SVGID_4_)" fill="#F7CC7F" d="M1174.167,1522.589c0,9.087-120.41,16.454-268.942,16.454
			c-148.534,0-268.943-7.367-268.943-16.454c0-9.088,120.409-16.455,268.943-16.455
			C1053.757,1506.134,1174.167,1513.501,1174.167,1522.589"/>
		<path clip-path="url(#SVGID_4_)" fill="#E59F39" d="M615.86,1435.375v81.076c0,13.107,146.221,23.732,326.593,23.732
			c180.373,0,326.593-10.625,326.593-23.732v-81.076H615.86z"/>
		<path clip-path="url(#SVGID_4_)" fill="#EAB054" d="M852.21,1539.266v-103.891H615.86v81.076
			C615.86,1527.283,715.73,1536.42,852.21,1539.266"/>
		<path clip-path="url(#SVGID_4_)" fill="#EAB054" d="M863.21,1539.48c25.371,0.459,51.915,0.703,79.243,0.703
			c40.721,0,79.702-0.542,115.653-1.531v-103.276H863.21V1539.48z"/>
		<path clip-path="url(#SVGID_4_)" fill="#EAB054" d="M1071.192,1538.269c116.36-3.631,197.854-12.032,197.854-21.817v-81.076
			h-197.854V1538.269z"/>
		<path clip-path="url(#SVGID_4_)" fill="#E59F39" d="M1269.047,1434.514c0,13.106-146.221,23.732-326.593,23.732
			c-180.373,0-326.593-10.626-326.593-23.732c0-13.107,146.22-23.732,326.593-23.732
			C1122.826,1410.781,1269.047,1421.406,1269.047,1434.514"/>
		<path clip-path="url(#SVGID_4_)" fill="#F7CC7F" d="M1211.396,1434.514c0,9.088-120.41,16.454-268.943,16.454
			c-148.533,0-268.942-7.366-268.942-16.454s120.409-16.455,268.942-16.455C1090.986,1418.059,1211.396,1425.426,1211.396,1434.514"
			/>
		<path clip-path="url(#SVGID_4_)" fill="#E59F39" d="M578.631,1348.507v81.076c0,13.107,146.221,23.733,326.593,23.733
			c180.373,0,326.594-10.626,326.594-23.733v-81.076H578.631z"/>
		<path clip-path="url(#SVGID_4_)" fill="#EAB054" d="M814.981,1452.398v-103.892h-236.35v81.076
			C578.631,1440.415,678.501,1449.553,814.981,1452.398"/>
		<path clip-path="url(#SVGID_4_)" fill="#EAB054" d="M825.981,1452.612c25.371,0.46,51.915,0.704,79.243,0.704
			c40.722,0,79.702-0.542,115.653-1.532v-103.277H825.981V1452.612z"/>
		<path clip-path="url(#SVGID_4_)" fill="#EAB054" d="M1033.963,1451.4c116.36-3.63,197.855-12.032,197.855-21.817v-81.076h-197.855
			V1451.4z"/>
		<path clip-path="url(#SVGID_4_)" fill="#E59F39" d="M1231.818,1347.646c0,13.107-146.221,23.732-326.594,23.732
			c-180.372,0-326.593-10.625-326.593-23.732c0-13.106,146.221-23.732,326.593-23.732
			C1085.597,1323.913,1231.818,1334.539,1231.818,1347.646"/>
		<path clip-path="url(#SVGID_4_)" fill="#F7CC7F" d="M1174.167,1347.646c0,9.088-120.41,16.455-268.942,16.455
			c-148.534,0-268.943-7.367-268.943-16.455c0-9.087,120.409-16.454,268.943-16.454
			C1053.757,1331.191,1174.167,1338.559,1174.167,1347.646"/>
		<path clip-path="url(#SVGID_4_)" fill="#E59F39" d="M2865.271,1602.316v77.968c0,12.604-140.614,22.823-314.07,22.823
			c-173.457,0-314.072-10.219-314.072-22.823v-77.968H2865.271z"/>
		<path clip-path="url(#SVGID_4_)" fill="#EAB054" d="M2637.984,1702.225v-99.908h227.287v77.968
			C2865.271,1690.701,2769.231,1699.488,2637.984,1702.225"/>
		<path clip-path="url(#SVGID_4_)" fill="#EAB054" d="M2627.405,1702.431c-24.397,0.441-49.924,0.677-76.204,0.677
			c-39.16,0-76.646-0.521-111.219-1.473v-99.318h187.423V1702.431z"/>
		<path clip-path="url(#SVGID_4_)" fill="#EAB054" d="M2427.398,1701.266c-111.898-3.491-190.27-11.571-190.27-20.981v-77.968
			h190.27V1701.266z"/>
		<path clip-path="url(#SVGID_4_)" fill="#E59F39" d="M2237.13,1601.488c0,12.604,140.614,22.822,314.071,22.822
			s314.07-10.218,314.07-22.822c0-12.604-140.613-22.822-314.07-22.822S2237.13,1588.885,2237.13,1601.488"/>
		<path clip-path="url(#SVGID_4_)" fill="#F7CC7F" d="M2292.57,1601.488c0,8.739,115.793,15.824,258.631,15.824
			s258.63-7.085,258.63-15.824s-115.792-15.823-258.63-15.823S2292.57,1592.749,2292.57,1601.488"/>
		<path clip-path="url(#SVGID_4_)" fill="#E59F39" d="M2919.007,1519.812v77.968c0,12.604-140.614,22.822-314.071,22.822
			s-314.072-10.218-314.072-22.822v-77.968H2919.007z"/>
		<path clip-path="url(#SVGID_4_)" fill="#EAB054" d="M2691.719,1619.72v-99.908h227.288v77.968
			C2919.007,1608.196,2822.967,1616.983,2691.719,1619.72"/>
		<path clip-path="url(#SVGID_4_)" fill="#EAB054" d="M2681.141,1619.926c-24.398,0.441-49.924,0.676-76.205,0.676
			c-39.16,0-76.646-0.521-111.219-1.473v-99.317h187.424V1619.926z"/>
		<path clip-path="url(#SVGID_4_)" fill="#EAB054" d="M2481.133,1618.761c-111.898-3.491-190.27-11.571-190.27-20.981v-77.968
			h190.27V1618.761z"/>
		<path clip-path="url(#SVGID_4_)" fill="#E59F39" d="M2290.864,1518.983c0,12.604,140.614,22.822,314.071,22.822
			s314.071-10.218,314.071-22.822c0-12.604-140.614-22.822-314.071-22.822S2290.864,1506.38,2290.864,1518.983"/>
		<path clip-path="url(#SVGID_4_)" fill="#F7CC7F" d="M2346.305,1518.983c0,8.739,115.793,15.823,258.631,15.823
			s258.631-7.084,258.631-15.823s-115.793-15.823-258.631-15.823S2346.305,1510.244,2346.305,1518.983"/>
		<path clip-path="url(#SVGID_4_)" fill="#E59F39" d="M2883.205,1435.113v77.968c0,12.604-140.614,22.822-314.07,22.822
			c-173.457,0-314.072-10.218-314.072-22.822v-77.968H2883.205z"/>
		<path clip-path="url(#SVGID_4_)" fill="#EAB054" d="M2655.918,1535.021v-99.908h227.287v77.968
			C2883.205,1523.498,2787.164,1532.285,2655.918,1535.021"/>
		<path clip-path="url(#SVGID_4_)" fill="#EAB054" d="M2645.339,1535.228c-24.398,0.441-49.925,0.676-76.204,0.676
			c-39.161,0-76.646-0.521-111.22-1.472v-99.318h187.424V1535.228z"/>
		<path clip-path="url(#SVGID_4_)" fill="#EAB054" d="M2445.331,1534.063c-111.897-3.491-190.269-11.571-190.269-20.981v-77.968
			h190.269V1534.063z"/>
		<path clip-path="url(#SVGID_4_)" fill="#E59F39" d="M2255.063,1434.285c0,12.604,140.615,22.822,314.072,22.822
			c173.455,0,314.07-10.219,314.07-22.822c0-12.604-140.615-22.822-314.07-22.822
			C2395.678,1411.463,2255.063,1421.681,2255.063,1434.285"/>
		<path clip-path="url(#SVGID_4_)" fill="#F7CC7F" d="M2310.503,1434.285c0,8.739,115.793,15.823,258.632,15.823
			c142.837,0,258.63-7.084,258.63-15.823s-115.793-15.823-258.63-15.823C2426.296,1418.462,2310.503,1425.546,2310.503,1434.285"/>
		<path clip-path="url(#SVGID_4_)" fill="#E59F39" d="M2919.007,1351.576v77.968c0,12.604-140.614,22.823-314.071,22.823
			s-314.072-10.219-314.072-22.823v-77.968H2919.007z"/>
		<path clip-path="url(#SVGID_4_)" fill="#EAB054" d="M2691.719,1451.484v-99.908h227.288v77.968
			C2919.007,1439.962,2822.967,1448.748,2691.719,1451.484"/>
		<path clip-path="url(#SVGID_4_)" fill="#EAB054" d="M2681.141,1451.69c-24.398,0.441-49.924,0.677-76.205,0.677
			c-39.16,0-76.646-0.521-111.219-1.473v-99.318h187.424V1451.69z"/>
		<path clip-path="url(#SVGID_4_)" fill="#EAB054" d="M2481.133,1450.525c-111.898-3.491-190.27-11.571-190.27-20.981v-77.968
			h190.27V1450.525z"/>
		<path clip-path="url(#SVGID_4_)" fill="#E59F39" d="M2290.864,1350.748c0,12.604,140.614,22.822,314.071,22.822
			s314.071-10.219,314.071-22.822c0-12.604-140.614-22.822-314.071-22.822S2290.864,1338.144,2290.864,1350.748"/>
		<path clip-path="url(#SVGID_4_)" fill="#F7CC7F" d="M2346.305,1350.748c0,8.739,115.793,15.823,258.631,15.823
			s258.631-7.084,258.631-15.823s-115.793-15.823-258.631-15.823S2346.305,1342.009,2346.305,1350.748"/>
		<path clip-path="url(#SVGID_4_)" fill="#E59F39" d="M3065.14,1256.831l-18.866,65.866
			c-3.051,10.648-124.313-14.745-270.847-56.717c-146.534-41.973-262.852-84.631-259.802-95.278l18.866-65.866L3065.14,1256.831z"/>
		<path clip-path="url(#SVGID_4_)" fill="#EAB054" d="M2848.954,1286.234l24.175-84.401l192.011,54.998l-18.866,65.866
			C3043.752,1331.498,2960.492,1315.682,2848.954,1286.234"/>
		<path clip-path="url(#SVGID_4_)" fill="#EAB054" d="M2839.967,1283.849c-20.717-5.53-42.339-11.509-64.54-17.868
			c-33.082-9.477-64.624-18.987-93.601-28.156l24.033-83.903l158.333,45.353L2839.967,1283.849z"/>
		<path clip-path="url(#SVGID_4_)" fill="#EAB054" d="M2671.285,1234.467c-93.686-30.025-157.938-55.815-155.66-63.765
			l18.866-65.866l160.737,46.04L2671.285,1234.467z"/>
		<path clip-path="url(#SVGID_4_)" fill="#E59F39" d="M2534.691,1104.136c-3.05,10.648,113.268,53.306,259.802,95.278
			s267.797,67.365,270.847,56.718c3.05-10.648-113.267-53.307-259.802-95.278
			C2659.004,1118.881,2537.742,1093.488,2534.691,1104.136"/>
		<path clip-path="url(#SVGID_4_)" fill="#F7CC7F" d="M2581.527,1117.551c-2.115,7.383,93.992,41.388,214.66,75.951
			s220.201,56.598,222.316,49.215s-93.992-41.387-214.66-75.95C2683.178,1132.203,2583.641,1110.169,2581.527,1117.551"/>
		<path clip-path="url(#SVGID_4_)" fill="#E59F39" d="M2893.535,803.504l20.088,65.504c3.248,10.59-112.256,55.403-257.984,100.095
			c-145.728,44.691-266.496,72.336-269.744,61.747l-20.088-65.504L2893.535,803.504z"/>
		<path clip-path="url(#SVGID_4_)" fill="#EAB054" d="M2728.322,946.002l-25.741-83.938l190.954-58.56l20.088,65.504
			C2916.307,877.76,2837.883,909.887,2728.322,946.002"/>
		<path clip-path="url(#SVGID_4_)" fill="#EAB054" d="M2719.488,948.9c-20.384,6.657-41.77,13.431-63.85,20.202
			c-32.899,10.09-64.527,19.311-93.818,27.419l-25.589-83.441l157.462-48.29L2719.488,948.9z"/>
		<path clip-path="url(#SVGID_4_)" fill="#EAB054" d="M2551.153,999.453c-94.91,25.897-162.834,39.302-165.259,31.396
			l-20.088-65.504l159.852-49.023L2551.153,999.453z"/>
		<path clip-path="url(#SVGID_4_)" fill="#E59F39" d="M2365.594,964.649c3.247,10.59,124.016-17.056,269.744-61.747
			c145.729-44.69,261.231-89.505,257.984-100.094c-3.248-10.59-124.017,17.055-269.746,61.746
			C2477.85,909.246,2362.346,954.06,2365.594,964.649"/>
		<path clip-path="url(#SVGID_4_)" fill="#F7CC7F" d="M2412.171,950.365c2.251,7.342,101.358-16.54,221.362-53.343
			c120.005-36.802,215.462-72.588,213.211-79.93c-2.252-7.342-101.359,16.54-221.363,53.342
			C2505.377,907.237,2409.919,943.023,2412.171,950.365"/>
		<path clip-path="url(#SVGID_4_)" fill="#F7A491" d="M1171.521,1618.476c0,0,7.763,41.193,7.771,41.28
			c0.434,5.368,0.27,18.938,1.431,23.625c4.359,17.614,78.45-25.197,59.012-28.639c-1.759-0.312-14.509-13.214-17.429-18.677
			c-5.08-9.504-9.751-27.214-9.751-27.214L1171.521,1618.476z"/>
		<path clip-path="url(#SVGID_4_)" fill="#F47458" d="M1236.059,1652.172c0,0-19.128,4.735-28.861,5.706
			c-9.733,0.972-22.225-14.146-29.206-11.287c-7.685,3.147-11.868,51.121-11.868,51.121s122.211,5.565,151.094-2.412
			C1328.661,1692.14,1274.086,1666.743,1236.059,1652.172"/>
		<path clip-path="url(#SVGID_4_)" fill="#F7A491" d="M1341.929,1616.597c0,0,7.763,41.194,7.771,41.281
			c0.434,5.368,0.27,18.937,1.43,23.625c4.36,17.615,77.087-22.38,57.649-25.822c-1.76-0.312-13.145-16.03-16.065-21.493
			c-5.08-9.504-9.752-27.215-9.752-27.215L1341.929,1616.597z"/>
		<path clip-path="url(#SVGID_4_)" fill="#F47458" d="M1404.589,1652.172c0,0-19.129,4.735-28.862,5.706
			c-9.733,0.972-22.225-14.146-29.206-11.287c-7.683,3.147-11.868,51.121-11.868,51.121s122.211,5.565,151.095-2.412
			C1497.19,1692.14,1442.615,1666.743,1404.589,1652.172"/>
		<path clip-path="url(#SVGID_4_)" fill="#0E2E35" d="M918.196,1204.228l222.329-51.571c0,0,99.704-26.358,123.771,4.584
			c24.066,30.942,126.266,457.986,126.266,457.986s-52.717,4.584-56.155,2.292l-123.402-219.027
			c-11.738-20.833-19.459-43.687-22.764-67.37l-8.752-62.717l-90.535,26.359c0,0-104.289,22.92-146.692-3.438
			C899.86,1264.967,918.196,1204.228,918.196,1204.228"/>
		<path clip-path="url(#SVGID_4_)" fill="#EAB054" d="M1003.575,820.929c3.512,0.145,13.134,3.354,27.206,29.858
			c17.971,33.846,44.234,136.089,44.234,136.089l-78.397,29.097l-10.071-21.341l-16.588-164.293
			C969.959,830.339,1002.602,820.889,1003.575,820.929"/>
		<path clip-path="url(#SVGID_4_)" fill="#F7CC7F" d="M899.943,806.191c22.417,0.03,77.886,6.548,103.632,14.746
			c0,0,18.912,162.003-17.028,285.104c-8.045,27.557,6.654,114.232,6.654,114.232l-232.3-3.056c0,0,27.521-209.541,17.153-243.387
			c-10.367-33.846-10.614-151.805-10.614-151.805s1.591-0.247,52.191-8.963C843.233,808.997,876.008,806.161,899.943,806.191"/>
		<path clip-path="url(#SVGID_4_)" fill="#F7A491" d="M764.911,840.034c21.72-8.12,32.345,186.917,35.273,267.193
			c38.463,3.688,105.504,0.028,122.197-1.222c7.851-0.588,25.952-7.195,33.76-8.214c8.002-1.045,15.255-1.588,19.188-0.906
			c1.444,0.25,41.535,16.59,44.965,20.174c4.254,4.443,15.752,15.652,13.811,20.5c-1.941,4.847-22.114-13.506-22.114-13.506
			l-9.86-5.513c12.275,11.949,35.684,27.687,32.313,33.417c-3.289,5.589-24.407-10.382-39.457-21.267
			c12.909,11.621,28.946,32.416,25.252,35.657c-3.321,2.913-21.564-21.161-41.06-28.094c-7.225-2.569-14.426,4.545-20.109,5.405
			c-4.178,0.631-10.626,1.975-14.723,0.817l-19.581-1.89c-7.19,0.649-8.9,0.811-16.161,2.351
			c-8.431,1.788-22.262,3.671-32.998,6.285c-61.821,15.054-82.441,22.045-101.369,22.033
			C716.904,1173.222,713.579,859.225,764.911,840.034"/>
		<path clip-path="url(#SVGID_4_)" fill="#EAB054" d="M723.692,1023.139c-4.068-82.229-3.473-183.58,42.779-200.872
			c18.249-6.823,50.422,34.201,44.636,202.542C786.415,1026.84,750.165,1028.476,723.692,1023.139"/>
		<path clip-path="url(#SVGID_4_)" fill="#F47458" d="M1238.855,972.887l-218.86,14.297c-5.791,0.378-10.779,4.218-12.625,9.719
			l-56.653,168.761l-120.659,7.882c-3.374,0.221-5.93,3.133-5.71,6.504c0.22,3.371,3.134,5.926,6.508,5.705l343.405-22.431
			c9.442-0.618,17.641-6.719,20.945-15.584l57.982-155.588C1256.811,982.433,1249.205,972.211,1238.855,972.887"/>
		<path clip-path="url(#SVGID_4_)" fill="#FFFFFF" d="M1129.804,1077.169c-0.436,7.533-6.136,13.332-12.732,12.952
			c-6.597-0.38-11.591-6.793-11.156-14.326c0.436-7.532,6.137-13.331,12.733-12.951
			C1125.245,1063.223,1130.239,1069.637,1129.804,1077.169"/>
		<path clip-path="url(#SVGID_4_)" fill="#184655" d="M761.038,1211.927l242.276-41.831c0,0,104.751-15.958,128.818,14.984
			c24.066,30.942,93.974,432.051,93.974,432.051s-52.717,4.585-56.155,2.293c-2.663-1.775-66.488-135.497-95.154-195.748
			c-9.097-19.122-15.496-39.406-19.019-60.286l-9.213-54.593l-30.487,10.496c-53.577,18.443-110.662,24.844-166.892,17.86
			c-23.543-2.924-45.514-7.953-59.144-16.425C747.64,1294.369,761.038,1211.927,761.038,1211.927"/>
		<path clip-path="url(#SVGID_4_)" fill="#F7A491" d="M909.084,776.634l4.716,34.985c0,0,10.563,50.404-3.027,60.121
			s-57.794-61.558-57.794-61.558l4.668-88.65L909.084,776.634z"/>
		<path clip-path="url(#SVGID_4_)" fill="#F47458" d="M856.139,750.263c11.226,30.236,37.964,48.823,56.943,56.033l-3.998-29.661
			l-51.437-55.102L856.139,750.263z"/>
		<path clip-path="url(#SVGID_4_)" fill="#F7A491" d="M906.292,625.062c28.798-4.634,54.627,18.448,53.909,47.179
			c-0.313,12.488-1.341,28.081-3.944,44.873c-6.262,40.386-33.909,75.948-52.191,72.773c-18.282-3.176-64.279-38.013-56.18-95.486
			C852.887,658.919,876.072,629.924,906.292,625.062"/>
		<path clip-path="url(#SVGID_4_)" fill="#F7A491" d="M860.571,701.261c-1.542,8.88-8.681,15.058-15.942,13.796
			c-7.263-1.261-11.9-9.484-10.357-18.364c1.543-8.881,8.681-15.058,15.943-13.797C857.477,684.158,862.114,692.38,860.571,701.261"
			/>
		<path clip-path="url(#SVGID_4_)" fill="#0E2E35" d="M850.215,682.896c0,0,22.104,5.474,30.306-8.695
			c8.203-14.168,37.534-44.742,74.819-32.065c37.286,12.677-32.811-30.823-35.793-30.823c-2.983,0-38.777-0.248-38.777-0.248
			s-27.591,22.62-28.586,25.105c-0.994,2.486-8.948,29.58-8.948,29.58L850.215,682.896z"/>
		<rect x="1933.314" y="1499.301" clip-path="url(#SVGID_4_)" fill="#50BFA5" width="550.209" height="200.253"/>
		<rect x="1933.314" y="1528.483" clip-path="url(#SVGID_4_)" fill="#96D9C9" width="550.209" height="25.762"/>
		<rect x="1933.314" y="1578.805" clip-path="url(#SVGID_4_)" fill="#96D9C9" width="550.209" height="25.761"/>
		<rect x="1933.314" y="1629.126" clip-path="url(#SVGID_4_)" fill="#96D9C9" width="550.209" height="25.761"/>
		<rect x="1933.314" y="1673.793" clip-path="url(#SVGID_4_)" fill="#96D9C9" width="550.209" height="25.761"/>
		<rect x="2138.136" y="1499.301" clip-path="url(#SVGID_4_)" fill="#F7CC7F" width="114.431" height="200.253"/>
		<rect x="2476.847" y="1499.301" clip-path="url(#SVGID_4_)" fill="#3C8F7C" width="83.093" height="200.253"/>
		<rect x="54.586" y="1696.705" clip-path="url(#SVGID_4_)" fill="#0E2E35" width="3040.395" height="17.349"/>
		<g opacity="0.8" clip-path="url(#SVGID_4_)">
			<g>
				<defs>
					<rect id="SVGID_25_" x="903.182" y="61.894" width="442.858" height="131.27"/>
				</defs>
				<clipPath id="SVGID_26_">
					<use xlink:href="#SVGID_25_"  overflow="visible"/>
				</clipPath>
				<path clip-path="url(#SVGID_26_)" fill="#FFFFFF" d="M1346.038,193.164c-5.573-24.256-27.279-42.353-53.226-42.353
					c-4.763,0-9.383,0.613-13.788,1.759c-12.806-27.386-40.598-46.362-72.827-46.362c-8.332,0-16.368,1.268-23.925,3.623
					c-17.35-28.73-48.871-47.94-84.88-47.94c-42.843,0-79.333,27.191-93.16,65.257c-9.787-5.457-21.054-8.578-33.055-8.578
					c-37.553,0-67.995,30.443-67.995,67.996c0,2.226,0.114,4.426,0.323,6.598H1346.038z"/>
			</g>
		</g>
		<g opacity="0.8" clip-path="url(#SVGID_4_)">
			<g>
				<defs>
					<rect id="SVGID_27_" x="1210.32" y="363.684" width="335.14" height="99.35"/>
				</defs>
				<clipPath id="SVGID_28_">
					<use xlink:href="#SVGID_27_"  overflow="visible"/>
				</clipPath>
				<path clip-path="url(#SVGID_28_)" fill="#FFFFFF" d="M1545.456,463.031c-4.217-18.356-20.643-32.051-40.279-32.051
					c-3.605,0-7.101,0.464-10.434,1.331c-9.692-20.725-30.724-35.085-55.113-35.085c-6.306,0-12.387,0.96-18.106,2.742
					c-13.13-21.742-36.984-36.28-64.235-36.28c-32.421,0-60.036,20.578-70.499,49.385c-7.407-4.13-15.934-6.492-25.015-6.492
					c-28.419,0-51.457,23.038-51.457,51.457c0,1.685,0.087,3.349,0.245,4.993H1545.456z"/>
			</g>
		</g>
		<g opacity="0.8" clip-path="url(#SVGID_4_)">
			<g>
				<defs>
					<rect id="SVGID_29_" x="612.908" y="338.474" width="292.241" height="86.62"/>
				</defs>
				<clipPath id="SVGID_30_">
					<use xlink:href="#SVGID_29_"  overflow="visible"/>
				</clipPath>
				<path clip-path="url(#SVGID_30_)" fill="#FFFFFF" d="M612.908,425.098c3.677-16.007,18.001-27.949,35.124-27.949
					c3.143,0,6.191,0.405,9.098,1.161c8.451-18.072,26.791-30.594,48.059-30.594c5.498,0,10.801,0.837,15.788,2.39
					c11.449-18.959,32.249-31.635,56.013-31.635c28.272,0,52.351,17.943,61.476,43.063c6.458-3.601,13.893-5.66,21.813-5.66
					c24.781,0,44.871,20.089,44.871,44.87c0,1.469-0.076,2.921-0.214,4.354H612.908z"/>
			</g>
		</g>
		<path clip-path="url(#SVGID_4_)" fill="#50BFA5" d="M1231.133,653.534l3.898,47.448l27.561-31.039l89.137-73.003l-76.011,23.948
			c0,0-37.423,18.18-39.141,20.58C1234.86,643.868,1231.133,653.534,1231.133,653.534"/>
		<polygon clip-path="url(#SVGID_4_)" fill="#96D9C9" points="1190.742,633.146 1351.729,596.939 1231.133,653.534 		"/>
		<polygon clip-path="url(#SVGID_4_)" fill="#96D9C9" points="1293.046,688.67 1243.424,663.911 1351.729,596.94 		"/>
		<path clip-path="url(#SVGID_4_)" fill="#3C8F7C" d="M1212.34,679.878c7.434-2.797,12.911-3.4,12.965-3.405l-0.364-3.449
			c-0.241,0.025-5.977,0.656-13.822,3.608L1212.34,679.878z"/>
		<path clip-path="url(#SVGID_4_)" fill="#3C8F7C" d="M1132.89,960.322c6.525-5.962,12.398-12.382,17.455-19.087l2.769,2.089
			c-5.185,6.875-11.203,13.455-17.885,19.559L1132.89,960.322z M1163.752,919.16c1.7-3.57,3.265-7.291,4.651-11.059
			c1.569-4.266,2.958-8.726,4.128-13.255l3.357,0.867c-1.198,4.641-2.622,9.211-4.23,13.585c-1.423,3.868-3.029,7.687-4.775,11.353
			L1163.752,919.16z M1177.761,843.302l3.467-0.078c0.214,9.418-0.065,18.055-0.855,26.403l-3.452-0.326
			C1177.698,861.089,1177.972,852.585,1177.761,843.302 M1172.825,791.309l3.434-0.49c1.453,10.149,2.489,18.442,3.263,26.098
			l-3.451,0.349C1175.303,809.659,1174.271,801.411,1172.825,791.309 M1168.943,765.192c-1.375-9.347-1.816-18.205-1.311-26.331
			l3.461,0.216c-0.489,7.885-0.058,16.501,1.28,25.599l0.03,0.202l-3.437,0.472L1168.943,765.192z M1173.303,712.799
			c3.492-8.538,8.558-15.981,15.056-22.123l2.383,2.521c-6.138,5.801-10.925,12.837-14.23,20.914L1173.303,712.799z"/>
	</g>
</g>
</svg>
