<svg width="23" height="19" viewBox="0 0 23 19" fill="none" xmlns="http://www.w3.org/2000/svg">
<g clip-path="url(#clip0_1091_20)">
<path d="M11.1927 17.6057C11.3819 17.7167 11.4765 17.7721 11.61 17.8009C11.7137 17.8232 11.8648 17.8232 11.9684 17.8009C12.1019 17.7721 12.1965 17.7167 12.3857 17.6057C14.0504 16.6301 18.6258 13.565 18.6258 9.35084V6.08827C18.6258 5.16626 18.6258 4.70527 18.4844 4.37802C18.3406 4.04541 18.1973 3.86847 17.9025 3.65932C17.6124 3.45354 17.0437 3.33471 15.9063 3.09706C14.6527 2.83513 13.6901 2.36214 12.8099 1.67812C12.3879 1.35009 12.1769 1.18609 12.0117 1.14136C11.8374 1.09416 11.741 1.09416 11.5668 1.14136C11.4016 1.18609 11.1906 1.3501 10.7685 1.67812C9.88842 2.36214 8.92572 2.83513 7.67215 3.09706C6.53477 3.33471 5.96608 3.45354 5.67599 3.65932C5.38114 3.86847 5.23789 4.04541 5.0941 4.37802C4.95264 4.70527 4.95264 5.16626 4.95264 6.08827V9.35084C4.95264 13.565 9.52799 16.6301 11.1927 17.6057Z" stroke="white" stroke-width="1.51924" stroke-linecap="round" stroke-linejoin="round"/>
</g>
<defs>
<clipPath id="clip0_1091_20">
<rect width="18.2309" height="18.2309" fill="white" transform="translate(2.37183 0.346313)"/>
</clipPath>
</defs>
</svg>
