<svg width="23" height="19" viewBox="0 0 23 19" fill="none" xmlns="http://www.w3.org/2000/svg">
<path d="M8.71886 9.31836C8.68174 9.32157 8.64458 9.32428 8.60739 9.3265C8.57019 9.32879 8.53296 9.33062 8.49569 9.33199C8.45849 9.33337 8.42126 9.33425 8.38399 9.33463C8.34671 9.33509 8.30944 9.33509 8.27217 9.33463C8.23497 9.3341 8.19774 9.33314 8.16047 9.33177C8.12327 9.33039 8.08608 9.32852 8.04888 9.32615C8.01168 9.32386 7.97453 9.32107 7.93741 9.31779C7.90029 9.31458 7.86321 9.31091 7.82616 9.30679C7.78912 9.30259 7.75215 9.29797 7.71526 9.29293C7.6783 9.28789 7.64145 9.28235 7.60471 9.27632C7.56789 9.27036 7.5312 9.26394 7.49461 9.25707C7.45795 9.25019 7.4214 9.24286 7.38497 9.23507C7.34854 9.22728 7.31222 9.21907 7.27602 9.21044C7.23974 9.20173 7.20361 9.19261 7.16764 9.18306C7.13159 9.17344 7.09569 9.16343 7.05995 9.15304C7.0242 9.14258 6.98857 9.13166 6.95306 9.12028C6.91754 9.10897 6.88218 9.09721 6.84697 9.08499C6.81176 9.07277 6.7767 9.06013 6.7418 9.04707C6.70697 9.03401 6.67226 9.02053 6.63766 9.00663C6.60314 8.99265 6.56877 8.97829 6.53455 8.96355C6.50033 8.94873 6.46631 8.93353 6.43247 8.91795C6.39864 8.9023 6.36499 8.88626 6.33154 8.86983C6.29809 8.85341 6.26486 8.83657 6.23187 8.81931C6.19887 8.80205 6.16607 8.78437 6.13345 8.76627C6.10084 8.74817 6.0685 8.72968 6.03642 8.71082C6.00426 8.69195 5.97237 8.67271 5.94075 8.65308C5.90906 8.63337 5.87763 8.61332 5.84647 8.59293C5.81531 8.57246 5.78441 8.55165 5.75378 8.53049C5.72316 8.50926 5.6928 8.48768 5.6627 8.46576C5.63253 8.44384 5.60267 8.42154 5.57311 8.39886C5.54356 8.37617 5.5143 8.35311 5.48536 8.32966C5.45633 8.30629 5.42761 8.28253 5.3992 8.2584C4.46263 7.47637 3.89942 6.31445 3.79895 5.10532C3.6971 3.87958 4.10976 2.70425 4.90118 1.77191C5.6768 0.85825 6.83208 0.31522 8.01715 0.219913L8.03364 0.218171C9.18216 0.105725 10.3685 0.517612 11.2478 1.25247C11.277 1.27684 11.306 1.30151 11.3347 1.32648C11.3634 1.35153 11.3917 1.37693 11.4197 1.40267C11.4479 1.42841 11.4756 1.45449 11.5029 1.48092C11.5303 1.50734 11.5574 1.53411 11.5842 1.56123C11.6109 1.58826 11.6373 1.61568 11.6634 1.64348C11.6895 1.67121 11.7152 1.69924 11.7405 1.72758C11.766 1.75599 11.791 1.78467 11.8157 1.81361C11.8404 1.84264 11.8646 1.87193 11.8886 1.90149C11.9125 1.93112 11.9361 1.96102 11.9594 1.99119C11.9826 2.02136 12.0054 2.0518 12.0279 2.0825C12.0503 2.11328 12.0724 2.14429 12.0941 2.17553C12.1158 2.20684 12.1371 2.23839 12.158 2.27016C12.1789 2.30193 12.1994 2.33397 12.2195 2.36628C12.2397 2.39859 12.2594 2.43116 12.2788 2.464C12.2981 2.49677 12.317 2.5298 12.3356 2.5631C12.3541 2.59633 12.3722 2.62978 12.3899 2.66346C12.4075 2.69722 12.4248 2.73117 12.4417 2.76531C12.4586 2.79945 12.475 2.83378 12.4909 2.86831C12.507 2.90283 12.5226 2.93754 12.5377 2.97245C12.5529 3.00735 12.5676 3.04245 12.5819 3.07773C12.5962 3.11302 12.61 3.1485 12.6234 3.18417C12.6368 3.21976 12.6498 3.25554 12.6623 3.29151C12.6749 3.32741 12.687 3.3635 12.6986 3.39978C12.7103 3.43598 12.7214 3.47237 12.7322 3.50896C12.743 3.54547 12.7533 3.58209 12.763 3.61883C12.7729 3.65564 12.7823 3.69253 12.7912 3.7295C12.8002 3.76654 12.8086 3.80366 12.8166 3.84086C12.8247 3.87805 12.8322 3.91536 12.8393 3.95279C12.8464 3.99014 12.8531 4.0276 12.8593 4.06518C12.8655 4.10275 12.8712 4.14041 12.8765 4.17814C12.8817 4.21579 12.8865 4.25352 12.8908 4.29133C12.8951 4.32921 12.899 4.36709 12.9023 4.40498C13.0029 5.61777 12.5652 6.82106 11.7845 7.74205C11.7607 7.77016 11.7365 7.79796 11.712 7.82545C11.6875 7.85303 11.6627 7.88026 11.6375 7.90714C11.6123 7.93402 11.5868 7.9606 11.561 7.98688C11.5352 8.01315 11.509 8.03912 11.4825 8.06478C11.456 8.09045 11.4293 8.11576 11.4022 8.14074C11.3751 8.16571 11.3477 8.19035 11.32 8.21463C11.2923 8.23892 11.2644 8.26291 11.2361 8.28658C11.2078 8.31018 11.1792 8.33344 11.1503 8.35635C11.1215 8.37926 11.0924 8.40183 11.063 8.42406C11.0336 8.44629 11.0039 8.46813 10.974 8.48959C10.944 8.51105 10.9138 8.53217 10.8834 8.55295C10.8529 8.57365 10.8221 8.594 10.7911 8.61401C10.7602 8.63394 10.729 8.65354 10.6975 8.67278C10.6661 8.69203 10.6345 8.71086 10.6026 8.72926C10.5706 8.74767 10.5385 8.7657 10.5062 8.78334C10.4738 8.80106 10.4412 8.81832 10.4085 8.83512C10.3757 8.852 10.3428 8.86846 10.3096 8.8845C10.2764 8.90054 10.243 8.91616 10.2095 8.93136C10.1759 8.94656 10.1422 8.96137 10.1082 8.97581C10.0743 8.99017 10.0402 9.00414 10.006 9.01774C9.97171 9.03126 9.93727 9.0444 9.90267 9.05715C9.86807 9.06983 9.83332 9.08213 9.79841 9.09404C9.76359 9.10588 9.72857 9.1173 9.69336 9.1283C9.65822 9.13929 9.62294 9.14983 9.5875 9.15992C9.55206 9.17007 9.51651 9.17978 9.48084 9.18902C9.44517 9.19833 9.40939 9.20716 9.37349 9.21548C9.33759 9.22388 9.30162 9.23182 9.26557 9.23931C9.22952 9.24679 9.19335 9.25386 9.15707 9.26051C9.1208 9.26715 9.08448 9.2733 9.04812 9.27895C9.01169 9.28468 8.97522 9.28995 8.93871 9.29476C8.90213 9.29965 8.86554 9.30404 8.82896 9.30793C8.7923 9.31183 8.7556 9.31531 8.71886 9.31836ZM8.04922 1.85142C7.28988 1.9063 6.60615 2.27612 6.11043 2.85147C5.57002 3.47848 5.35349 4.25639 5.42246 5.07462C5.48719 5.84186 5.89974 6.54518 6.48655 7.03266C7.08172 7.52712 7.85985 7.74354 8.62663 7.67262C9.39445 7.59758 10.0799 7.26546 10.5743 6.6633C11.1305 5.98564 11.3284 5.22722 11.2432 4.35824C11.1684 3.59546 10.7325 2.93636 10.1477 2.45816C9.523 1.94743 8.83709 1.81682 8.04922 1.85142Z" fill="white"/>
<path d="M15.0527 9.21037C14.927 9.22893 14.8231 9.23431 14.6998 9.19731C14.4554 9.1241 14.2648 8.94595 14.152 8.71968C14.0664 8.5476 14.0406 8.36063 14.1098 8.17824C14.286 7.71368 14.8029 7.58777 15.2089 7.39954C15.9397 7.06077 16.4628 6.46789 16.7379 5.71038C16.751 5.67365 16.7633 5.63668 16.7748 5.59948C16.7863 5.56229 16.7971 5.52482 16.8072 5.48709C16.8172 5.44944 16.8265 5.41159 16.8349 5.37356C16.8434 5.33552 16.8511 5.29733 16.8581 5.25899C16.865 5.22065 16.8712 5.18219 16.8767 5.14362C16.882 5.10498 16.8866 5.06629 16.8904 5.02757C16.8942 4.98877 16.8972 4.94989 16.8995 4.91094C16.9017 4.87207 16.9031 4.83315 16.9038 4.7942C16.9044 4.75517 16.9043 4.71618 16.9033 4.67723C16.9024 4.63828 16.9007 4.59936 16.8982 4.56049C16.8957 4.52161 16.8923 4.48277 16.8882 4.44397C16.8842 4.40525 16.8793 4.3666 16.8737 4.32803C16.8679 4.28946 16.8615 4.25104 16.8543 4.21278C16.8471 4.17444 16.839 4.13629 16.8303 4.09833C16.8215 4.06037 16.812 4.0226 16.8017 3.98502C16.7914 3.94744 16.7803 3.91006 16.7685 3.87286C16.7567 3.83574 16.7441 3.79889 16.7308 3.76231C16.7174 3.72564 16.7034 3.68929 16.6886 3.65324C16.6738 3.61719 16.6583 3.58144 16.642 3.546C16.6258 3.51057 16.6088 3.47551 16.5912 3.44083C16.5735 3.40608 16.5551 3.37171 16.536 3.33772C16.517 3.30374 16.4972 3.27013 16.4768 3.23691C16.4563 3.20376 16.4352 3.17099 16.4135 3.13861C16.3917 3.1063 16.3693 3.07445 16.3463 3.04306C16.3233 3.01159 16.2995 2.98062 16.2752 2.95015C16.2509 2.91975 16.226 2.88981 16.2005 2.86033C16.175 2.83092 16.1489 2.80201 16.1221 2.7736C16.0954 2.74519 16.0681 2.71735 16.0403 2.69008C16.0124 2.66282 15.9841 2.63612 15.9552 2.61C15.9263 2.58388 15.8968 2.55833 15.8669 2.53336C15.8369 2.50846 15.8065 2.48417 15.7756 2.46049C15.7446 2.43682 15.7131 2.41375 15.6813 2.3913C15.5371 2.29036 15.3772 2.19069 15.2161 2.1192C14.8469 1.95537 14.3303 1.88056 14.1496 1.46881C14.1444 1.45682 14.1396 1.44472 14.1351 1.4325C14.1305 1.42027 14.1263 1.40794 14.1224 1.39549C14.1184 1.38304 14.1148 1.37048 14.1115 1.3578C14.1081 1.3452 14.1051 1.33252 14.1024 1.31976C14.0998 1.30701 14.0974 1.29418 14.0953 1.28127C14.0934 1.26836 14.0917 1.25541 14.0903 1.24243C14.0888 1.22945 14.0878 1.21642 14.0871 1.20336C14.0863 1.19038 14.0859 1.17736 14.0858 1.1643C14.0857 1.15124 14.0859 1.13817 14.0865 1.12511C14.0871 1.11205 14.0879 1.09903 14.0892 1.08605C14.0904 1.07306 14.0919 1.06012 14.0937 1.04721C14.0956 1.0343 14.0977 1.02143 14.1003 1.0086C14.1028 0.99577 14.1056 0.983015 14.1087 0.970336C14.1119 0.957658 14.1153 0.945094 14.1191 0.932645C14.1228 0.920119 14.1268 0.907707 14.1312 0.895411C14.1356 0.883114 14.1403 0.870932 14.1453 0.858864C14.255 0.590941 14.4869 0.426092 14.7445 0.318423C15.2833 0.280822 15.9289 0.604837 16.3753 0.87834C17.3679 1.48634 18.1555 2.57792 18.4188 3.70823C18.4275 3.74443 18.4357 3.78075 18.4435 3.81718C18.4512 3.85354 18.4585 3.89005 18.4653 3.92671C18.4722 3.96329 18.4786 3.99995 18.4846 4.03669C18.4905 4.07343 18.496 4.11024 18.5011 4.14713C18.5061 4.18402 18.5107 4.22095 18.5149 4.25792C18.5191 4.29496 18.5227 4.332 18.5259 4.36905C18.5291 4.40616 18.5319 4.44328 18.5342 4.4804C18.5366 4.5176 18.5384 4.5548 18.5398 4.59199C18.5412 4.62919 18.5421 4.66638 18.5426 4.70358C18.543 4.74085 18.543 4.77808 18.5426 4.81528C18.5422 4.85248 18.5413 4.88971 18.5399 4.92698C18.5385 4.96418 18.5367 5.00133 18.5344 5.03845C18.5321 5.07565 18.5294 5.11277 18.5262 5.14981C18.523 5.18693 18.5193 5.22397 18.5152 5.26094C18.5111 5.29798 18.5066 5.33495 18.5015 5.37184C18.4965 5.40873 18.491 5.44554 18.485 5.48228C18.4792 5.51902 18.4728 5.55568 18.4659 5.59226C18.4591 5.62885 18.4518 5.66536 18.444 5.70179C18.4363 5.73822 18.4281 5.77454 18.4195 5.81074C18.4109 5.84694 18.4018 5.88303 18.3922 5.91901C18.3827 5.95506 18.3727 5.99095 18.3623 6.0267C18.352 6.06244 18.3411 6.09803 18.3298 6.13347C18.3185 6.16891 18.3068 6.20424 18.2946 6.23945C18.2824 6.27466 18.2698 6.30968 18.2568 6.3445C18.2438 6.37941 18.2303 6.41412 18.2165 6.44864C18.2026 6.48324 18.1883 6.51761 18.1735 6.55175C18.1588 6.58597 18.1436 6.62 18.1281 6.65383C18.1125 6.68759 18.0965 6.7212 18.0802 6.75465C18.0637 6.7881 18.0469 6.82133 18.0296 6.85432C18.0125 6.88732 17.9949 6.92008 17.9768 6.95262C17.9588 6.98523 17.9404 7.01758 17.9215 7.04966C17.9027 7.08181 17.8835 7.1137 17.8639 7.14532C17.2335 8.15384 16.22 8.94068 15.0527 9.21037Z" fill="white"/>
<path d="M11.973 13.1007C10.3454 13.0856 8.71777 13.0819 7.09009 13.0897L5.45192 13.0834C5.00798 13.0809 4.55074 13.0595 4.11058 13.1227C3.5444 13.2039 3.06013 13.4464 2.6383 13.83C1.53558 14.8329 1.64153 16.0693 1.65498 17.426C1.6583 17.7614 1.69157 18.1131 1.47022 18.3942C1.32387 18.5801 1.11165 18.7032 0.874155 18.7218C0.67174 18.7375 0.495514 18.6654 0.345353 18.5325C0.0893212 18.3058 0.0236754 18.1025 0.00906823 17.77C-0.00671894 17.4106 0.0025379 17.0477 0.00426785 16.688C0.0114626 15.1884 0.197174 14.0525 1.25919 12.903C2.17316 11.9136 3.29499 11.4915 4.62223 11.4401C4.77048 11.4347 4.91877 11.4319 5.06709 11.4316L9.52152 11.4323L11.1531 11.427C11.8179 11.4263 12.4992 11.4079 13.1499 11.5651C13.1752 11.5711 13.2005 11.5774 13.2257 11.584C13.2508 11.5905 13.2759 11.5972 13.3009 11.604C13.326 11.611 13.351 11.6182 13.376 11.6256C13.4009 11.6329 13.4257 11.6405 13.4506 11.6482C13.4754 11.656 13.5001 11.664 13.5248 11.6722C13.5495 11.6804 13.5741 11.6888 13.5986 11.6974C13.6231 11.706 13.6475 11.7149 13.6719 11.724C13.6963 11.733 13.7207 11.7422 13.7449 11.7517C13.7691 11.7612 13.7932 11.7708 13.8173 11.7807C13.8413 11.7905 13.8653 11.8006 13.8891 11.8109C13.913 11.8212 13.9369 11.8316 13.9606 11.8423C13.9843 11.853 14.0079 11.8639 14.0314 11.875C14.0549 11.886 14.0783 11.8973 14.1016 11.9088C14.1249 11.9203 14.1481 11.932 14.1713 11.9438C14.1944 11.9557 14.2175 11.9678 14.2404 11.9801C14.2633 11.9924 14.2861 12.0048 14.3089 12.0175C14.3316 12.0302 14.3541 12.043 14.3766 12.0561C14.3991 12.0691 14.4215 12.0823 14.4437 12.0957C14.466 12.1092 14.4882 12.1228 14.5102 12.1366C14.5323 12.1505 14.5542 12.1644 14.5759 12.1786C14.5977 12.1928 14.6194 12.2072 14.6409 12.2218C14.6624 12.2363 14.6839 12.251 14.7052 12.2659C14.7265 12.2808 14.7477 12.296 14.7688 12.3112C14.7898 12.3265 14.8106 12.3419 14.8314 12.3575C14.8522 12.3732 14.8728 12.389 14.8933 12.4051C14.9138 12.421 14.9342 12.4372 14.9545 12.4535C14.9747 12.4699 14.9948 12.4864 15.0147 12.503C15.0347 12.5197 15.0544 12.5365 15.0741 12.5535C15.0938 12.5706 15.1133 12.5878 15.1326 12.6051C15.152 12.6224 15.1712 12.6399 15.1902 12.6576C15.2093 12.6753 15.2283 12.6932 15.2471 12.7112C15.2658 12.7291 15.2844 12.7473 15.3029 12.7656C16.0253 13.4882 16.514 14.451 16.6236 15.4705C16.6853 16.0461 16.659 16.6427 16.6595 17.2219C16.6599 17.6536 16.7297 18.1518 16.3893 18.4797C16.2353 18.6279 16.0252 18.7286 15.8086 18.7212C15.4673 18.7095 15.1429 18.4187 15.0534 18.0962C14.9947 17.8842 15.0186 17.6336 15.02 17.4147C15.0235 16.8751 15.076 16.0929 14.9946 15.583C14.8972 14.9739 14.6381 14.4433 14.2125 13.9959C13.5405 13.2896 12.9155 13.1234 11.973 13.1007Z" fill="white"/>
<path d="M21.6014 18.7112C21.4246 18.7339 21.2626 18.7162 21.1054 18.6281C20.9317 18.5306 20.7584 18.3434 20.692 18.1539C20.5998 17.891 20.6359 17.5687 20.6403 17.2946C20.6514 16.6096 20.7183 15.8277 20.5172 15.1648C20.2784 14.3775 19.7283 13.7539 18.9915 13.3975C18.7621 13.2865 18.5054 13.2206 18.284 13.0962C18.0756 12.9792 17.9192 12.82 17.8598 12.5826C17.8087 12.3789 17.837 12.1634 17.9474 11.9841C18.0881 11.7558 18.2942 11.632 18.5495 11.5723C18.9441 11.5324 19.4026 11.7418 19.7434 11.9188C20.8286 12.4825 21.7131 13.461 22.078 14.6392C22.1592 14.9015 22.2223 15.1738 22.255 15.4467C22.3174 15.9679 22.2987 16.5002 22.2984 17.024C22.2983 17.323 22.3211 17.6496 22.2812 17.9458C22.2663 18.0567 22.2394 18.1605 22.1846 18.2589C22.0567 18.4888 21.8517 18.6419 21.6014 18.7112Z" fill="white"/>
</svg>
